<?xml version="1.0"?>
<svg xmlns="http://www.w3.org/2000/svg" xmlns:xlink="http://www.w3.org/1999/xlink" xmlns:svgjs="http://svgjs.com/svgjs" version="1.1" width="512" height="512" x="0" y="0" viewBox="0 0 64 64" style="enable-background:new 0 0 512 512" xml:space="preserve" class=""><g><path xmlns="http://www.w3.org/2000/svg" d="m27 62c3.51904 0 6.43231-2.6134 6.92017-6h10.66577l-1.29297 1.29297 1.41406 1.41406 3-3c.19531-.19531.29297-.45117.29297-.70703s-.09766-.51172-.29297-.70703l-3-3-1.41406 1.41406 1.29297 1.29297h-10.66577c-.48786-3.3866-3.40113-6-6.92017-6-3.85938 0-7 3.14014-7 7s3.14062 7 7 7zm0-12c2.75684 0 5 2.24316 5 5s-2.24316 5-5 5-5-2.24316-5-5 2.24316-5 5-5z" fill="#ec3655" data-original="#000000" style="" class=""/><path xmlns="http://www.w3.org/2000/svg" d="m55 62c3.85938 0 7-3.14014 7-7s-3.14062-7-7-7-7 3.14014-7 7 3.14062 7 7 7zm0-12c2.75684 0 5 2.24316 5 5s-2.24316 5-5 5-5-2.24316-5-5 2.24316-5 5-5z" fill="#ec3655" data-original="#000000" style="" class=""/><path xmlns="http://www.w3.org/2000/svg" d="m23 25c-3.51904 0-6.43225 2.6134-6.9201 6h-1.5799c-6.89258 0-12.5 5.60742-12.5 12.5s5.60742 12.5 12.5 12.5h2.08594l-1.29297 1.29297 1.41406 1.41406 3-3c.19531-.19531.29297-.45117.29297-.70703s-.09766-.51172-.29297-.70703l-3-3-1.41406 1.41406 1.29297 1.29297h-2.08594c-5.79004 0-10.5-4.71045-10.5-10.5s4.70996-10.5 10.5-10.5h1.5799c.48785 3.3866 3.40106 6 6.9201 6 3.85938 0 7-3.14014 7-7s-3.14062-7-7-7zm0 12c-2.75684 0-5-2.24316-5-5s2.24316-5 5-5 5 2.24316 5 5-2.24316 5-5 5z" fill="#ec3655" data-original="#000000" style="" class=""/><path xmlns="http://www.w3.org/2000/svg" d="m26.70703 5.29297-1.41406 1.41406 1.29297 1.29297h-10.66577c-.48786-3.3866-3.40113-6-6.92017-6-3.85938 0-7 3.14014-7 7s3.14062 7 7 7c3.51904 0 6.43231-2.6134 6.92017-6h10.66577l-1.29297 1.29297 1.41406 1.41406 3-3c.19531-.19531.29297-.45117.29297-.70703s-.09766-.51172-.29297-.70703zm-17.70703 8.70703c-2.75684 0-5-2.24316-5-5s2.24316-5 5-5 5 2.24316 5 5-2.24316 5-5 5z" fill="#ec3655" data-original="#000000" style="" class=""/><path xmlns="http://www.w3.org/2000/svg" d="m62 20.5c0-6.89258-5.60742-12.5-12.5-12.5h-5.57983c-.48786-3.3866-3.40113-6-6.92017-6-3.85938 0-7 3.14014-7 7s3.14062 7 7 7c3.51904 0 6.43231-2.6134 6.92017-6h5.57983c5.79004 0 10.5 4.71045 10.5 10.5s-4.70996 10.5-10.5 10.5h-16.08594l1.29297-1.29297-1.41406-1.41406-3 3c-.19531.19531-.29297.45117-.29297.70703s.09766.51172.29297.70703l3 3 1.41406-1.41406-1.29297-1.29297h16.08594c6.89258 0 12.5-5.60742 12.5-12.5zm-25-6.5c-2.75684 0-5-2.24316-5-5s2.24316-5 5-5 5 2.24316 5 5-2.24316 5-5 5z" fill="#ec3655" data-original="#000000" style="" class=""/></g></svg>
